<svg width="100" height="100" viewBox="0 0 100 100" fill="none" xmlns="http://www.w3.org/2000/svg">
<g transform="translate(40, 40) scale(0.22)" opacity="0.025">
<path d="M49.8824 19.7088C49.8824 20.5997 49.9399 26.3489 49.9399 27.5769C49.5979 27.5769 49.2925 27.5769 48.9505 27.5769C43.7258 27.5769 38.5011 27.5769 33.2765 27.5458C32.6234 27.5458 32.188 27.7324 31.7215 28.1989C27.5231 32.4284 23.2625 36.6268 19.0641 40.8874C18.5976 41.3539 18.1623 41.5405 17.5092 41.5094C15.8298 41.4783 14.1505 41.5094 12.4711 41.5094C12.1601 41.5094 11.6583 41.5094 11.2852 41.5094C11.2852 41.1209 11.286 41.0692 11.286 40.8826C11.2848 39.2148 11.2848 37.547 11.2893 35.8182C11.291 35.3305 11.3826 34.9785 11.7558 34.6053C16.5762 29.8161 21.3655 24.9957 26.1859 20.2064C26.4968 19.8643 26.8078 19.6777 27.2743 19.6777C34.707 19.7088 42.1397 19.7088 49.5413 19.7088C49.6968 19.7088 49.7891 19.7088 49.8824 19.7088Z" fill="white"/>
<path d="M60.748 30.6876C60.9035 30.6876 61.059 30.7187 61.3078 30.7187C61.3078 33.02 61.3078 35.2591 61.3078 37.5294C60.9346 37.5605 60.6236 37.5605 60.3126 37.5605C58.1979 37.5916 56.0831 37.5916 53.9995 37.5605C53.3464 37.5605 52.911 37.7471 52.4445 38.2136C47.8418 42.8473 43.2081 47.45 38.6054 52.1149C38.1078 52.5814 37.6413 52.7991 36.9571 52.768C32.5721 52.768 28.156 52.768 23.7711 52.768C24.1443 52.768 23.429 52.768 23.7711 52.768C23.3979 52.768 24.1132 52.768 23.7711 52.768C24.2065 52.7991 32.2922 44.8688 32.6343 44.5267C34.7802 42.3498 36.926 40.2039 39.103 38.027C39.1963 37.9337 39.2585 37.8404 39.4451 37.5916C34.9979 37.5916 30.6235 37.5954 26.1452 37.5954C26.5121 37.2285 26.6955 37.0306 26.9432 36.783C28.8091 34.9171 30.6751 33.0822 32.541 31.2163C32.8831 30.8742 33.2252 30.6876 33.7539 30.6876C42.7416 30.6876 51.7292 30.6876 60.748 30.6876Z" fill="white"/>
</g>
</svg>
