<svg width="60" height="60" viewBox="0 0 60 60" fill="none" xmlns="http://www.w3.org/2000/svg">
<path d="M39.8 15.7C39.8 16.2 39.8 19.5 39.8 20.2C39.6 20.2 39.5 20.2 39.3 20.2C36.3 20.2 33.3 20.2 30.3 20.2C29.9 20.2 29.7 20.3 29.4 20.5C27 23 24.5 25.4 22.1 27.8C21.8 28.1 21.6 28.2 21.2 28.2C20.2 28.1 19.3 28.2 18.3 28.2C18.1 28.2 17.8 28.2 17.6 28.2V27.8C17.6 26.8 17.6 25.9 17.6 24.9C17.6 24.6 17.7 24.4 17.9 24.2C20.7 21.4 23.4 18.6 26.2 15.9C26.4 15.7 26.5 15.6 26.8 15.6C31.1 15.6 35.4 15.6 39.6 15.6C39.7 15.6 39.8 15.6 39.8 15.7Z" fill="white" fill-opacity="0.035"/>
<path d="M46.1 22.1C46.2 22.1 46.3 22.1 46.4 22.1V26.0C46.2 26.0 46.0 26.0 45.8 26.0C44.6 26.0 43.4 26.0 42.2 26.0C41.8 26.0 41.6 26.1 41.3 26.4C38.7 29.0 36.0 31.7 33.4 34.3C33.1 34.6 32.8 34.7 32.4 34.7C29.9 34.7 27.3 34.7 24.8 34.7L24.8 34.7C25.1 34.7 27.8 32.1 28.0 31.9C29.2 30.7 30.5 29.4 31.7 28.2C31.8 28.1 31.8 28.1 31.9 27.9C29.3 27.9 26.8 27.9 24.2 27.9C24.4 27.7 24.5 27.6 24.7 27.4C25.7 26.4 26.8 25.3 27.9 24.2C28.1 24.0 28.3 23.9 28.6 23.9C33.8 23.9 39.0 23.9 44.2 23.9C44.8 23.9 45.5 22.1 46.1 22.1Z" fill="white" fill-opacity="0.035"/>
</svg>
